REM DIRINDEX 1\2\4\18,1\2\4\19,1\2\5\20,1\2\5\21,1\2\6\22,1\2\6\23,1\2\7\24,1\2\8\25,1\2\9\26,1\2\10\27,1\2\10\28,1\3\11\29,1\3\11\30,1\3\11\31,1\3\11\32,1\3\12\33,1\3\12\34,1\3\12\35,1\3\12\36,1\3\13\37,1\3\13\38,1\3\13\39,1\3\13\40,1\3\14\41,1\3\14\42,1\3\15\43,1\3\15\44,1\3\16\45,1\3\16\46,1\3\17\47,1\3\17\48,1\3\17\49,1\3\17\50
REM DIRNAME folder01,folder02,folder03,folder04,folder05,folder06,folder07,folder08,folder09,folder10,folder11,folder12,folder13,folder14,folder15,folder16,folder17,folder18,folder19,folder20,folder21,folder22,folder23,folder24,folder25,folder26,folder27,folder28,folder29,folder30,folder31,folder32,folder33,folder34,folder35,folder36,folder37,folder38,folder39,folder40,folder41,folder42,folder43,folder44,folder45,folder46,folder47,folder48,folder49,folder50
TITLE ""
FILE "10.mp3" MP3
  TRACK 01 AUDIO
    TITLE "0:"
    INDEX 01 00:00:00
  TRACK 02 AUDIO
    TITLE "24:cjc135_1553"
    INDEX 01 00:00:15
  TRACK 03 AUDIO
    TITLE "0:"
    INDEX 01 00:01:44
  TRACK 04 AUDIO
    TITLE "24:cjc135_1554"
    INDEX 01 00:02:20
  TRACK 05 AUDIO
    TITLE "0:"
    INDEX 01 00:03:66
  TRACK 06 AUDIO
    TITLE "24:cjc135_1555"
    INDEX 01 00:04:42
  TRACK 07 AUDIO
    TITLE "0:"
    INDEX 01 00:05:63
  TRACK 08 AUDIO
    TITLE "24:cjc135_1556"
    INDEX 01 00:06:37
  TRACK 09 AUDIO
    TITLE "0:"
    INDEX 01 00:07:64
  TRACK 10 AUDIO
    TITLE "24:cjc135_1557"
    INDEX 01 00:08:40
  TRACK 11 AUDIO
    TITLE "0:"
    INDEX 01 00:09:40
  TRACK 12 AUDIO
    TITLE "24:cjc135_1558"
    INDEX 01 00:10:18
  TRACK 13 AUDIO
    TITLE "0:"
    INDEX 01 00:11:56
  TRACK 14 AUDIO
    TITLE "24:cjc135_1559"
    INDEX 01 00:12:32
  TRACK 15 AUDIO
    TITLE "0:"
    INDEX 01 00:13:71
  TRACK 16 AUDIO
    TITLE "24:cjc135_1560"
    INDEX 01 00:14:45
  TRACK 17 AUDIO
    TITLE "0:"
    INDEX 01 00:15:60
  TRACK 18 AUDIO
    TITLE "24:cjc135_1561"
    INDEX 01 00:16:38
  TRACK 19 AUDIO
    TITLE "0:"
    INDEX 01 00:19:30
  TRACK 20 AUDIO
    TITLE "24:cjc135_1562"
    INDEX 01 00:20:04
  TRACK 21 AUDIO
    TITLE "0:"
    INDEX 01 00:23:06
  TRACK 22 AUDIO
    TITLE "24:cjc135_1563"
    INDEX 01 00:23:55
  TRACK 23 AUDIO
    TITLE "0:"
    INDEX 01 00:25:39
  TRACK 24 AUDIO
    TITLE "24:cjc135_1564"
    INDEX 01 00:26:11
  TRACK 25 AUDIO
    TITLE "0:"
    INDEX 01 00:27:36
  TRACK 26 AUDIO
    TITLE "24:cjc135_1565"
    INDEX 01 00:28:12
  TRACK 27 AUDIO
    TITLE "0:"
    INDEX 01 00:30:54
  TRACK 28 AUDIO
    TITLE "24:cjc135_1566"
    INDEX 01 00:31:31
  TRACK 29 AUDIO
    TITLE "0:"
    INDEX 01 00:33:11
  TRACK 30 AUDIO
    TITLE "24:cjc135_1567"
    INDEX 01 00:33:62
  TRACK 31 AUDIO
    TITLE "0:"
    INDEX 01 00:35:25
  TRACK 32 AUDIO
    TITLE "24:cjc135_1568"
    INDEX 01 00:35:74
  TRACK 33 AUDIO
    TITLE "0:"
    INDEX 01 00:37:12
  TRACK 34 AUDIO
    TITLE "24:cjc135_1569"
    INDEX 01 00:37:61
  TRACK 35 AUDIO
    TITLE "0:"
    INDEX 01 00:39:15
  TRACK 36 AUDIO
    TITLE "24:cjc135_1570"
    INDEX 01 00:39:66
  TRACK 37 AUDIO
    TITLE "0:"
    INDEX 01 00:41:06
  TRACK 38 AUDIO
    TITLE "24:cjc135_1571"
    INDEX 01 00:41:55
  TRACK 39 AUDIO
    TITLE "0:"
    INDEX 01 00:42:68
  TRACK 40 AUDIO
    TITLE "24:cjc135_1572"
    INDEX 01 00:43:42
  TRACK 41 AUDIO
    TITLE "0:"
    INDEX 01 00:44:34
  TRACK 42 AUDIO
    TITLE "24:cjc135_1573"
    INDEX 01 00:45:10
  TRACK 43 AUDIO
    TITLE "0:"
    INDEX 01 00:46:19
  TRACK 44 AUDIO
    TITLE "24:cjc135_1574"
    INDEX 01 00:46:66
  TRACK 45 AUDIO
    TITLE "0:"
    INDEX 01 00:48:14
  TRACK 46 AUDIO
    TITLE "24:cjc135_1575"
    INDEX 01 00:48:61
  TRACK 47 AUDIO
    TITLE "0:"
    INDEX 01 00:50:19
  TRACK 48 AUDIO
    TITLE "24:cjc135_1576"
    INDEX 01 00:50:70
  TRACK 49 AUDIO
    TITLE "0:"
    INDEX 01 00:52:28
  TRACK 50 AUDIO
    TITLE "24:cjc135_1577"
    INDEX 01 00:53:04
  TRACK 51 AUDIO
    TITLE "0:"
    INDEX 01 00:54:48
  TRACK 52 AUDIO
    TITLE "24:cjc135_1578"
    INDEX 01 00:55:22
  TRACK 53 AUDIO
    TITLE "0:"
    INDEX 01 00:56:41
  TRACK 54 AUDIO
    TITLE "24:cjc135_1579"
    INDEX 01 00:57:15
  TRACK 55 AUDIO
    TITLE "0:"
    INDEX 01 00:58:11
  TRACK 56 AUDIO
    TITLE "24:cjc135_1580"
    INDEX 01 00:58:62
  TRACK 57 AUDIO
    TITLE "0:"
    INDEX 01 00:59:71
  TRACK 58 AUDIO
    TITLE "24:cjc135_1581"
    INDEX 01 01:00:47
  TRACK 59 AUDIO
    TITLE "0:"
    INDEX 01 01:01:66
  TRACK 60 AUDIO
    TITLE "24:cjc135_1582"
    INDEX 01 01:02:42
  TRACK 61 AUDIO
    TITLE "0:"
    INDEX 01 01:04:09
  TRACK 62 AUDIO
    TITLE "24:cjc135_1583"
    INDEX 01 01:04:58
  TRACK 63 AUDIO
    TITLE "0:"
    INDEX 01 01:06:08
  TRACK 64 AUDIO
    TITLE "24:cjc135_1584"
    INDEX 01 01:06:57
  TRACK 65 AUDIO
    TITLE "0:"
    INDEX 01 01:07:66
  TRACK 66 AUDIO
    TITLE "24:cjc135_1585"
    INDEX 01 01:08:38
  TRACK 67 AUDIO
    TITLE "0:"
    INDEX 01 01:09:38
  TRACK 68 AUDIO
    TITLE "24:cjc135_1586"
    INDEX 01 01:10:22
  TRACK 69 AUDIO
    TITLE "0:"
    INDEX 01 01:11:45
  TRACK 70 AUDIO
    TITLE "24:cjc135_1587"
    INDEX 01 01:12:21
  TRACK 71 AUDIO
    TITLE "0:"
    INDEX 01 01:13:12
  TRACK 72 AUDIO
    TITLE "24:cjc135_1588"
    INDEX 01 01:13:63
  TRACK 73 AUDIO
    TITLE "0:"
    INDEX 01 01:14:72
  TRACK 74 AUDIO
    TITLE "24:cjc135_1589"
    INDEX 01 01:15:48
  TRACK 75 AUDIO
    TITLE "0:"
    INDEX 01 01:16:65
  TRACK 76 AUDIO
    TITLE "24:cjc135_1590"
    INDEX 01 01:17:39
  TRACK 77 AUDIO
    TITLE "0:"
    INDEX 01 01:18:58
  TRACK 78 AUDIO
    TITLE "24:cjc135_1591"
    INDEX 01 01:19:32
  TRACK 79 AUDIO
    TITLE "0:"
    INDEX 01 01:20:49
  TRACK 80 AUDIO
    TITLE "24:cjc135_1592"
    INDEX 01 01:21:25
  TRACK 81 AUDIO
    TITLE "0:"
    INDEX 01 01:22:54
  TRACK 82 AUDIO
    TITLE "24:cjc135_1593"
    INDEX 01 01:23:30
  TRACK 83 AUDIO
    TITLE "0:"
    INDEX 01 01:25:08
  TRACK 84 AUDIO
    TITLE "24:cjc135_1594"
    INDEX 01 01:25:58
  TRACK 85 AUDIO
    TITLE "0:"
    INDEX 01 01:26:64
  TRACK 86 AUDIO
    TITLE "24:cjc135_1595"
    INDEX 01 01:27:40
  TRACK 87 AUDIO
    TITLE "0:"
    INDEX 01 01:28:49
  TRACK 88 AUDIO
    TITLE "24:cjc135_1596"
    INDEX 01 01:29:21
  TRACK 89 AUDIO
    TITLE "0:"
    INDEX 01 01:30:48
  TRACK 90 AUDIO
    TITLE "24:cjc135_1597"
    INDEX 01 01:31:24
  TRACK 91 AUDIO
    TITLE "0:"
    INDEX 01 01:32:31
  TRACK 92 AUDIO
    TITLE "24:cjc135_1598"
    INDEX 01 01:33:05
  TRACK 93 AUDIO
    TITLE "0:"
    INDEX 01 01:34:24
  TRACK 94 AUDIO
    TITLE "24:cjc135_1599"
    INDEX 01 01:35:04
  TRACK 95 AUDIO
    TITLE "0:"
    INDEX 01 01:36:39
  TRACK 96 AUDIO
    TITLE "24:cjc135_1600"
    INDEX 01 01:37:15
  TRACK 97 AUDIO
    TITLE "0:"
    INDEX 01 01:38:59
  TRACK 98 AUDIO
    TITLE "24:cjc135_1601"
    INDEX 01 01:39:49
  TRACK 99 AUDIO
    TITLE "0:"
    INDEX 01 01:40:50
  TRACK 100 AUDIO
    TITLE "24:cjc135_1602"
    INDEX 01 01:41:24
  TRACK 101 AUDIO
    TITLE "0:"
    INDEX 01 01:42:33
